<mxfile host="Electron" modified="2023-06-23T17:51:47.697Z" agent="Mozilla/5.0 (X11; Linux x86_64) AppleWebKit/537.36 (KHTML, like Gecko) draw.io/21.5.0 Chrome/112.0.5615.204 Electron/24.5.1 Safari/537.36" etag="UZbXXgAtXB_AOKIL2dkS" version="21.5.0" type="device">
  <diagram name="PÃ¡gina-1" id="rN2LJihnUFl8Uy325QJz">
    <mxGraphModel dx="1978" dy="747" grid="1" gridSize="10" guides="1" tooltips="1" connect="1" arrows="1" fold="1" page="1" pageScale="1" pageWidth="827" pageHeight="1169" math="0" shadow="0">
      <root>
        <mxCell id="0" />
        <mxCell id="1" parent="0" />
        <mxCell id="oC-QnKjkfsPwuS0FO-7s-1" value="Livro" style="swimlane;fontStyle=1;align=center;verticalAlign=top;childLayout=stackLayout;horizontal=1;startSize=26;horizontalStack=0;resizeParent=1;resizeParentMax=0;resizeLast=0;collapsible=1;marginBottom=0;whiteSpace=wrap;html=1;" parent="1" vertex="1">
          <mxGeometry x="333" y="630" width="160" height="170" as="geometry" />
        </mxCell>
        <mxCell id="oC-QnKjkfsPwuS0FO-7s-2" value="- titulo: String&lt;br&gt;- autor: String&lt;br&gt;- anoPublicacao: int&lt;br&gt;- estoque: Integer&lt;br&gt;- valor: Double" style="text;strokeColor=none;fillColor=none;align=left;verticalAlign=top;spacingLeft=4;spacingRight=4;overflow=hidden;rotatable=0;points=[[0,0.5],[1,0.5]];portConstraint=eastwest;whiteSpace=wrap;html=1;" parent="oC-QnKjkfsPwuS0FO-7s-1" vertex="1">
          <mxGeometry y="26" width="160" height="94" as="geometry" />
        </mxCell>
        <mxCell id="TP7SuFMEwu7cWY-4JSte-9" value="&amp;nbsp;+ imprimirDetalhes: void" style="html=1;whiteSpace=wrap;align=left;" parent="oC-QnKjkfsPwuS0FO-7s-1" vertex="1">
          <mxGeometry y="120" width="160" height="50" as="geometry" />
        </mxCell>
        <mxCell id="oC-QnKjkfsPwuS0FO-7s-5" value="Cliente" style="swimlane;fontStyle=1;align=center;verticalAlign=top;childLayout=stackLayout;horizontal=1;startSize=26;horizontalStack=0;resizeParent=1;resizeParentMax=0;resizeLast=0;collapsible=1;marginBottom=0;whiteSpace=wrap;html=1;" parent="1" vertex="1">
          <mxGeometry x="703" y="270" width="200" height="80" as="geometry" />
        </mxCell>
        <mxCell id="oC-QnKjkfsPwuS0FO-7s-6" value="- nome: String&lt;br&gt;- telefone: String&lt;br&gt;- endereco: Endereco" style="text;strokeColor=none;fillColor=none;align=left;verticalAlign=top;spacingLeft=4;spacingRight=4;overflow=hidden;rotatable=0;points=[[0,0.5],[1,0.5]];portConstraint=eastwest;whiteSpace=wrap;html=1;" parent="oC-QnKjkfsPwuS0FO-7s-5" vertex="1">
          <mxGeometry y="26" width="200" height="54" as="geometry" />
        </mxCell>
        <mxCell id="oC-QnKjkfsPwuS0FO-7s-9" value="Funcionario" style="swimlane;fontStyle=1;align=center;verticalAlign=top;childLayout=stackLayout;horizontal=1;startSize=26;horizontalStack=0;resizeParent=1;resizeParentMax=0;resizeLast=0;collapsible=1;marginBottom=0;whiteSpace=wrap;html=1;" parent="1" vertex="1">
          <mxGeometry x="-101" y="278" width="200" height="142" as="geometry" />
        </mxCell>
        <mxCell id="oC-QnKjkfsPwuS0FO-7s-10" value="- nome: String&lt;br&gt;- telefone: String&lt;br&gt;- cargo: String&lt;br&gt;- salario: Double&lt;br&gt;- endereco: Endereco" style="text;strokeColor=none;fillColor=none;align=left;verticalAlign=top;spacingLeft=4;spacingRight=4;overflow=hidden;rotatable=0;points=[[0,0.5],[1,0.5]];portConstraint=eastwest;whiteSpace=wrap;html=1;" parent="oC-QnKjkfsPwuS0FO-7s-9" vertex="1">
          <mxGeometry y="26" width="200" height="84" as="geometry" />
        </mxCell>
        <mxCell id="oC-QnKjkfsPwuS0FO-7s-11" value="" style="line;strokeWidth=1;fillColor=none;align=left;verticalAlign=middle;spacingTop=-1;spacingLeft=3;spacingRight=3;rotatable=0;labelPosition=right;points=[];portConstraint=eastwest;strokeColor=inherit;" parent="oC-QnKjkfsPwuS0FO-7s-9" vertex="1">
          <mxGeometry y="110" width="200" height="8" as="geometry" />
        </mxCell>
        <mxCell id="oC-QnKjkfsPwuS0FO-7s-12" value="+ realizarVenda(livro: Livro): void" style="text;strokeColor=none;fillColor=none;align=left;verticalAlign=top;spacingLeft=4;spacingRight=4;overflow=hidden;rotatable=0;points=[[0,0.5],[1,0.5]];portConstraint=eastwest;whiteSpace=wrap;html=1;" parent="oC-QnKjkfsPwuS0FO-7s-9" vertex="1">
          <mxGeometry y="118" width="200" height="24" as="geometry" />
        </mxCell>
        <mxCell id="oC-QnKjkfsPwuS0FO-7s-13" value="Ficcao" style="swimlane;fontStyle=1;align=center;verticalAlign=top;childLayout=stackLayout;horizontal=1;startSize=26;horizontalStack=0;resizeParent=1;resizeParentMax=0;resizeLast=0;collapsible=1;marginBottom=0;whiteSpace=wrap;html=1;" parent="1" vertex="1">
          <mxGeometry x="333" y="900" width="160" height="80" as="geometry" />
        </mxCell>
        <mxCell id="oC-QnKjkfsPwuS0FO-7s-14" value="- genero: String" style="text;strokeColor=none;fillColor=none;align=left;verticalAlign=top;spacingLeft=4;spacingRight=4;overflow=hidden;rotatable=0;points=[[0,0.5],[1,0.5]];portConstraint=eastwest;whiteSpace=wrap;html=1;" parent="oC-QnKjkfsPwuS0FO-7s-13" vertex="1">
          <mxGeometry y="26" width="160" height="26" as="geometry" />
        </mxCell>
        <mxCell id="TP7SuFMEwu7cWY-4JSte-12" value="&amp;nbsp;+ imprimirDetalhes: void" style="html=1;whiteSpace=wrap;align=left;" parent="oC-QnKjkfsPwuS0FO-7s-13" vertex="1">
          <mxGeometry y="52" width="160" height="28" as="geometry" />
        </mxCell>
        <mxCell id="oC-QnKjkfsPwuS0FO-7s-17" value="Fantasia" style="swimlane;fontStyle=1;align=center;verticalAlign=top;childLayout=stackLayout;horizontal=1;startSize=26;horizontalStack=0;resizeParent=1;resizeParentMax=0;resizeLast=0;collapsible=1;marginBottom=0;whiteSpace=wrap;html=1;" parent="1" vertex="1">
          <mxGeometry x="123" y="900" width="160" height="80" as="geometry" />
        </mxCell>
        <mxCell id="oC-QnKjkfsPwuS0FO-7s-18" value="- genero: String" style="text;strokeColor=none;fillColor=none;align=left;verticalAlign=top;spacingLeft=4;spacingRight=4;overflow=hidden;rotatable=0;points=[[0,0.5],[1,0.5]];portConstraint=eastwest;whiteSpace=wrap;html=1;" parent="oC-QnKjkfsPwuS0FO-7s-17" vertex="1">
          <mxGeometry y="26" width="160" height="26" as="geometry" />
        </mxCell>
        <mxCell id="TP7SuFMEwu7cWY-4JSte-11" value="&amp;nbsp;+ imprimirDetalhes: void" style="html=1;whiteSpace=wrap;align=left;" parent="oC-QnKjkfsPwuS0FO-7s-17" vertex="1">
          <mxGeometry y="52" width="160" height="28" as="geometry" />
        </mxCell>
        <mxCell id="oC-QnKjkfsPwuS0FO-7s-21" value="Horror" style="swimlane;fontStyle=1;align=center;verticalAlign=top;childLayout=stackLayout;horizontal=1;startSize=26;horizontalStack=0;resizeParent=1;resizeParentMax=0;resizeLast=0;collapsible=1;marginBottom=0;whiteSpace=wrap;html=1;" parent="1" vertex="1">
          <mxGeometry x="543" y="900" width="160" height="80" as="geometry" />
        </mxCell>
        <mxCell id="oC-QnKjkfsPwuS0FO-7s-22" value="- genero: String" style="text;strokeColor=none;fillColor=none;align=left;verticalAlign=top;spacingLeft=4;spacingRight=4;overflow=hidden;rotatable=0;points=[[0,0.5],[1,0.5]];portConstraint=eastwest;whiteSpace=wrap;html=1;" parent="oC-QnKjkfsPwuS0FO-7s-21" vertex="1">
          <mxGeometry y="26" width="160" height="26" as="geometry" />
        </mxCell>
        <mxCell id="TP7SuFMEwu7cWY-4JSte-13" value="&amp;nbsp;+ imprimirDetalhes: void" style="html=1;whiteSpace=wrap;align=left;" parent="oC-QnKjkfsPwuS0FO-7s-21" vertex="1">
          <mxGeometry y="52" width="160" height="28" as="geometry" />
        </mxCell>
        <mxCell id="oC-QnKjkfsPwuS0FO-7s-25" value="Livraria" style="swimlane;fontStyle=1;align=center;verticalAlign=top;childLayout=stackLayout;horizontal=1;startSize=26;horizontalStack=0;resizeParent=1;resizeParentMax=0;resizeLast=0;collapsible=1;marginBottom=0;whiteSpace=wrap;html=1;" parent="1" vertex="1">
          <mxGeometry x="250" y="260" width="314" height="210" as="geometry" />
        </mxCell>
        <mxCell id="oC-QnKjkfsPwuS0FO-7s-26" value="- nome: String&lt;br&gt;- endereco: Endereco&lt;br&gt;- telefone: String&lt;br&gt;" style="text;strokeColor=none;fillColor=none;align=left;verticalAlign=top;spacingLeft=4;spacingRight=4;overflow=hidden;rotatable=0;points=[[0,0.5],[1,0.5]];portConstraint=eastwest;whiteSpace=wrap;html=1;" parent="oC-QnKjkfsPwuS0FO-7s-25" vertex="1">
          <mxGeometry y="26" width="314" height="64" as="geometry" />
        </mxCell>
        <mxCell id="oC-QnKjkfsPwuS0FO-7s-27" value="" style="line;strokeWidth=1;fillColor=none;align=left;verticalAlign=middle;spacingTop=-1;spacingLeft=3;spacingRight=3;rotatable=0;labelPosition=right;points=[];portConstraint=eastwest;strokeColor=inherit;" parent="oC-QnKjkfsPwuS0FO-7s-25" vertex="1">
          <mxGeometry y="90" width="314" height="8" as="geometry" />
        </mxCell>
        <mxCell id="oC-QnKjkfsPwuS0FO-7s-28" value="+ adicionarLivro(livro: Livro): void&lt;br&gt;+ removerLivro(livro: Livro): void&lt;br&gt;+ listarLivros: void&lt;br&gt;+ contratarFuncionario(funcionario: Funcionario): void&lt;br&gt;+ demitirFuncionario(funcionario: Funcionario): void&lt;br&gt;+ listarFuncionarios(): void" style="text;strokeColor=none;fillColor=none;align=left;verticalAlign=top;spacingLeft=4;spacingRight=4;overflow=hidden;rotatable=0;points=[[0,0.5],[1,0.5]];portConstraint=eastwest;whiteSpace=wrap;html=1;" parent="oC-QnKjkfsPwuS0FO-7s-25" vertex="1">
          <mxGeometry y="98" width="314" height="112" as="geometry" />
        </mxCell>
        <mxCell id="oC-QnKjkfsPwuS0FO-7s-29" value="Romance" style="swimlane;fontStyle=1;align=center;verticalAlign=top;childLayout=stackLayout;horizontal=1;startSize=26;horizontalStack=0;resizeParent=1;resizeParentMax=0;resizeLast=0;collapsible=1;marginBottom=0;whiteSpace=wrap;html=1;" parent="1" vertex="1">
          <mxGeometry x="749" y="900" width="160" height="80" as="geometry" />
        </mxCell>
        <mxCell id="oC-QnKjkfsPwuS0FO-7s-30" value="- genero: String" style="text;strokeColor=none;fillColor=none;align=left;verticalAlign=top;spacingLeft=4;spacingRight=4;overflow=hidden;rotatable=0;points=[[0,0.5],[1,0.5]];portConstraint=eastwest;whiteSpace=wrap;html=1;" parent="oC-QnKjkfsPwuS0FO-7s-29" vertex="1">
          <mxGeometry y="26" width="160" height="26" as="geometry" />
        </mxCell>
        <mxCell id="TP7SuFMEwu7cWY-4JSte-14" value="&amp;nbsp;+ imprimirDetalhes: void" style="html=1;whiteSpace=wrap;align=left;" parent="oC-QnKjkfsPwuS0FO-7s-29" vertex="1">
          <mxGeometry y="52" width="160" height="28" as="geometry" />
        </mxCell>
        <mxCell id="oC-QnKjkfsPwuS0FO-7s-31" value="Misterio" style="swimlane;fontStyle=1;align=center;verticalAlign=top;childLayout=stackLayout;horizontal=1;startSize=26;horizontalStack=0;resizeParent=1;resizeParentMax=0;resizeLast=0;collapsible=1;marginBottom=0;whiteSpace=wrap;html=1;" parent="1" vertex="1">
          <mxGeometry x="-81" y="900" width="160" height="80" as="geometry" />
        </mxCell>
        <mxCell id="oC-QnKjkfsPwuS0FO-7s-32" value="- genero: String" style="text;strokeColor=none;fillColor=none;align=left;verticalAlign=top;spacingLeft=4;spacingRight=4;overflow=hidden;rotatable=0;points=[[0,0.5],[1,0.5]];portConstraint=eastwest;whiteSpace=wrap;html=1;" parent="oC-QnKjkfsPwuS0FO-7s-31" vertex="1">
          <mxGeometry y="26" width="160" height="26" as="geometry" />
        </mxCell>
        <mxCell id="TP7SuFMEwu7cWY-4JSte-10" value="&amp;nbsp;+ imprimirDetalhes: void" style="html=1;whiteSpace=wrap;align=left;" parent="oC-QnKjkfsPwuS0FO-7s-31" vertex="1">
          <mxGeometry y="52" width="160" height="28" as="geometry" />
        </mxCell>
        <mxCell id="oC-QnKjkfsPwuS0FO-7s-33" value="" style="endArrow=block;endSize=16;endFill=0;html=1;rounded=0;exitX=0.5;exitY=0;exitDx=0;exitDy=0;" parent="1" source="oC-QnKjkfsPwuS0FO-7s-13" edge="1">
          <mxGeometry width="160" relative="1" as="geometry">
            <mxPoint x="240" y="840" as="sourcePoint" />
            <mxPoint x="413" y="800" as="targetPoint" />
          </mxGeometry>
        </mxCell>
        <mxCell id="oC-QnKjkfsPwuS0FO-7s-34" value="" style="endArrow=none;html=1;edgeStyle=orthogonalEdgeStyle;rounded=0;" parent="1" edge="1">
          <mxGeometry relative="1" as="geometry">
            <mxPoint y="850" as="sourcePoint" />
            <mxPoint x="410" y="850" as="targetPoint" />
          </mxGeometry>
        </mxCell>
        <mxCell id="oC-QnKjkfsPwuS0FO-7s-37" value="" style="endArrow=none;html=1;edgeStyle=orthogonalEdgeStyle;rounded=0;" parent="1" edge="1">
          <mxGeometry relative="1" as="geometry">
            <mxPoint x="4" y="850" as="sourcePoint" />
            <mxPoint x="414" y="850" as="targetPoint" />
          </mxGeometry>
        </mxCell>
        <mxCell id="oC-QnKjkfsPwuS0FO-7s-38" value="" style="endArrow=none;html=1;edgeStyle=orthogonalEdgeStyle;rounded=0;" parent="1" edge="1">
          <mxGeometry relative="1" as="geometry">
            <mxPoint x="410" y="850" as="sourcePoint" />
            <mxPoint x="820" y="850" as="targetPoint" />
          </mxGeometry>
        </mxCell>
        <mxCell id="oC-QnKjkfsPwuS0FO-7s-39" value="" style="endArrow=none;html=1;edgeStyle=orthogonalEdgeStyle;rounded=0;" parent="1" edge="1">
          <mxGeometry relative="1" as="geometry">
            <mxPoint x="817" y="850" as="sourcePoint" />
            <mxPoint x="827" y="900" as="targetPoint" />
            <Array as="points">
              <mxPoint x="827" y="850" />
            </Array>
          </mxGeometry>
        </mxCell>
        <mxCell id="oC-QnKjkfsPwuS0FO-7s-42" value="" style="endArrow=none;html=1;edgeStyle=orthogonalEdgeStyle;rounded=0;" parent="1" edge="1">
          <mxGeometry relative="1" as="geometry">
            <mxPoint x="610" y="850" as="sourcePoint" />
            <mxPoint x="620" y="900" as="targetPoint" />
            <Array as="points">
              <mxPoint x="620" y="850" />
            </Array>
          </mxGeometry>
        </mxCell>
        <mxCell id="oC-QnKjkfsPwuS0FO-7s-43" value="" style="endArrow=none;html=1;edgeStyle=orthogonalEdgeStyle;rounded=0;" parent="1" edge="1">
          <mxGeometry relative="1" as="geometry">
            <mxPoint x="190" y="850" as="sourcePoint" />
            <mxPoint x="200" y="900" as="targetPoint" />
            <Array as="points">
              <mxPoint x="200" y="850" />
            </Array>
          </mxGeometry>
        </mxCell>
        <mxCell id="oC-QnKjkfsPwuS0FO-7s-44" value="" style="endArrow=none;html=1;edgeStyle=orthogonalEdgeStyle;rounded=0;" parent="1" edge="1">
          <mxGeometry relative="1" as="geometry">
            <mxPoint x="10" y="850" as="sourcePoint" />
            <mxPoint y="900" as="targetPoint" />
            <Array as="points">
              <mxPoint y="850" />
            </Array>
          </mxGeometry>
        </mxCell>
        <mxCell id="oC-QnKjkfsPwuS0FO-7s-45" value="" style="endArrow=block;endFill=1;html=1;align=left;verticalAlign=top;rounded=0;entryX=0;entryY=0.582;entryDx=0;entryDy=0;exitX=0.997;exitY=0.622;exitDx=0;exitDy=0;exitPerimeter=0;entryPerimeter=0;" parent="1" source="oC-QnKjkfsPwuS0FO-7s-26" target="oC-QnKjkfsPwuS0FO-7s-6" edge="1">
          <mxGeometry x="-1" relative="1" as="geometry">
            <mxPoint x="490" y="560" as="sourcePoint" />
            <mxPoint x="650" y="560" as="targetPoint" />
          </mxGeometry>
        </mxCell>
        <mxCell id="oC-QnKjkfsPwuS0FO-7s-52" value="" style="endArrow=open;html=1;endSize=12;startArrow=diamondThin;startSize=14;startFill=0;edgeStyle=orthogonalEdgeStyle;rounded=0;" parent="1" source="oC-QnKjkfsPwuS0FO-7s-27" edge="1">
          <mxGeometry x="0.0247" y="-47" relative="1" as="geometry">
            <mxPoint x="200" y="410" as="sourcePoint" />
            <mxPoint x="100" y="350" as="targetPoint" />
            <Array as="points">
              <mxPoint x="150" y="350" />
              <mxPoint x="150" y="350" />
            </Array>
            <mxPoint as="offset" />
          </mxGeometry>
        </mxCell>
        <mxCell id="oC-QnKjkfsPwuS0FO-7s-56" value="" style="endArrow=open;html=1;endSize=12;startArrow=diamondThin;startSize=14;startFill=1;align=left;verticalAlign=bottom;rounded=0;exitX=0.514;exitY=1.032;exitDx=0;exitDy=0;exitPerimeter=0;entryX=0.5;entryY=0;entryDx=0;entryDy=0;" parent="1" source="oC-QnKjkfsPwuS0FO-7s-28" target="oC-QnKjkfsPwuS0FO-7s-1" edge="1">
          <mxGeometry x="-1" y="3" relative="1" as="geometry">
            <mxPoint x="380" y="590" as="sourcePoint" />
            <mxPoint x="470" y="590" as="targetPoint" />
          </mxGeometry>
        </mxCell>
        <mxCell id="TP7SuFMEwu7cWY-4JSte-16" value="Endereco" style="swimlane;fontStyle=1;align=center;verticalAlign=top;childLayout=stackLayout;horizontal=1;startSize=26;horizontalStack=0;resizeParent=1;resizeParentMax=0;resizeLast=0;collapsible=1;marginBottom=0;whiteSpace=wrap;html=1;" parent="1" vertex="1">
          <mxGeometry x="333" width="160" height="110" as="geometry" />
        </mxCell>
        <mxCell id="TP7SuFMEwu7cWY-4JSte-17" value="- rua: String&lt;br&gt;- numero: String&lt;br&gt;- cidade: String&lt;br&gt;- estado: String&lt;br&gt;- cep: String" style="text;strokeColor=none;fillColor=none;align=left;verticalAlign=top;spacingLeft=4;spacingRight=4;overflow=hidden;rotatable=0;points=[[0,0.5],[1,0.5]];portConstraint=eastwest;whiteSpace=wrap;html=1;" parent="TP7SuFMEwu7cWY-4JSte-16" vertex="1">
          <mxGeometry y="26" width="160" height="84" as="geometry" />
        </mxCell>
        <mxCell id="TP7SuFMEwu7cWY-4JSte-20" value="1" style="text;html=1;align=center;verticalAlign=middle;resizable=0;points=[];autosize=1;strokeColor=none;fillColor=none;" parent="1" vertex="1">
          <mxGeometry x="225" y="318" width="30" height="30" as="geometry" />
        </mxCell>
        <mxCell id="TP7SuFMEwu7cWY-4JSte-21" value="*" style="text;html=1;align=center;verticalAlign=middle;resizable=0;points=[];autosize=1;strokeColor=none;fillColor=none;" parent="1" vertex="1">
          <mxGeometry x="115" y="318" width="30" height="30" as="geometry" />
        </mxCell>
        <mxCell id="TP7SuFMEwu7cWY-4JSte-22" value="1" style="text;html=1;align=center;verticalAlign=middle;resizable=0;points=[];autosize=1;strokeColor=none;fillColor=none;" parent="1" vertex="1">
          <mxGeometry x="425" y="478" width="30" height="30" as="geometry" />
        </mxCell>
        <mxCell id="TP7SuFMEwu7cWY-4JSte-23" value="*" style="text;html=1;align=center;verticalAlign=middle;resizable=0;points=[];autosize=1;strokeColor=none;fillColor=none;" parent="1" vertex="1">
          <mxGeometry x="425" y="598" width="30" height="30" as="geometry" />
        </mxCell>
        <mxCell id="TP7SuFMEwu7cWY-4JSte-24" value="1" style="text;html=1;align=center;verticalAlign=middle;resizable=0;points=[];autosize=1;strokeColor=none;fillColor=none;" parent="1" vertex="1">
          <mxGeometry x="564" y="288" width="30" height="30" as="geometry" />
        </mxCell>
        <mxCell id="TP7SuFMEwu7cWY-4JSte-25" value="*" style="text;html=1;align=center;verticalAlign=middle;resizable=0;points=[];autosize=1;strokeColor=none;fillColor=none;" parent="1" vertex="1">
          <mxGeometry x="673" y="288" width="30" height="30" as="geometry" />
        </mxCell>
        <mxCell id="TP7SuFMEwu7cWY-4JSte-26" value="" style="html=1;verticalAlign=bottom;endArrow=block;edgeStyle=elbowEdgeStyle;elbow=vertical;curved=0;rounded=0;exitX=-0.075;exitY=1.077;exitDx=0;exitDy=0;exitPerimeter=0;" parent="1" source="TP7SuFMEwu7cWY-4JSte-28" edge="1">
          <mxGeometry width="80" relative="1" as="geometry">
            <mxPoint x="820" y="287.5999999999999" as="sourcePoint" />
            <mxPoint x="495" y="78" as="targetPoint" />
            <Array as="points">
              <mxPoint x="695" y="78" />
            </Array>
          </mxGeometry>
        </mxCell>
        <mxCell id="TP7SuFMEwu7cWY-4JSte-27" value="1" style="text;html=1;align=center;verticalAlign=middle;resizable=0;points=[];autosize=1;strokeColor=none;fillColor=none;" parent="1" vertex="1">
          <mxGeometry x="495" y="18" width="30" height="30" as="geometry" />
        </mxCell>
        <mxCell id="TP7SuFMEwu7cWY-4JSte-28" value="1" style="text;html=1;align=center;verticalAlign=middle;resizable=0;points=[];autosize=1;strokeColor=none;fillColor=none;" parent="1" vertex="1">
          <mxGeometry x="825" y="238" width="30" height="30" as="geometry" />
        </mxCell>
        <mxCell id="TP7SuFMEwu7cWY-4JSte-29" value="" style="html=1;verticalAlign=bottom;endArrow=block;edgeStyle=elbowEdgeStyle;elbow=vertical;curved=0;rounded=0;entryX=0.457;entryY=1.044;entryDx=0;entryDy=0;entryPerimeter=0;" parent="1" source="oC-QnKjkfsPwuS0FO-7s-25" target="TP7SuFMEwu7cWY-4JSte-17" edge="1">
          <mxGeometry width="80" relative="1" as="geometry">
            <mxPoint x="460" y="290" as="sourcePoint" />
            <mxPoint x="407" y="150" as="targetPoint" />
          </mxGeometry>
        </mxCell>
        <mxCell id="TP7SuFMEwu7cWY-4JSte-30" value="1" style="text;html=1;align=center;verticalAlign=middle;resizable=0;points=[];autosize=1;strokeColor=none;fillColor=none;" parent="1" vertex="1">
          <mxGeometry x="410" y="144" width="30" height="30" as="geometry" />
        </mxCell>
        <mxCell id="TP7SuFMEwu7cWY-4JSte-31" value="1" style="text;html=1;align=center;verticalAlign=middle;resizable=0;points=[];autosize=1;strokeColor=none;fillColor=none;" parent="1" vertex="1">
          <mxGeometry x="410" y="220" width="30" height="30" as="geometry" />
        </mxCell>
        <mxCell id="TP7SuFMEwu7cWY-4JSte-32" value="" style="html=1;verticalAlign=bottom;endArrow=block;edgeStyle=elbowEdgeStyle;elbow=vertical;curved=0;rounded=0;exitX=0.5;exitY=0;exitDx=0;exitDy=0;" parent="1" source="oC-QnKjkfsPwuS0FO-7s-9" edge="1">
          <mxGeometry width="80" relative="1" as="geometry">
            <mxPoint x="180" y="340" as="sourcePoint" />
            <mxPoint x="330" y="80" as="targetPoint" />
            <Array as="points">
              <mxPoint x="150" y="80" />
            </Array>
          </mxGeometry>
        </mxCell>
        <mxCell id="TP7SuFMEwu7cWY-4JSte-33" value="1" style="text;html=1;align=center;verticalAlign=middle;resizable=0;points=[];autosize=1;strokeColor=none;fillColor=none;" parent="1" vertex="1">
          <mxGeometry x="305" y="48" width="30" height="30" as="geometry" />
        </mxCell>
        <mxCell id="TP7SuFMEwu7cWY-4JSte-34" value="1" style="text;html=1;align=center;verticalAlign=middle;resizable=0;points=[];autosize=1;strokeColor=none;fillColor=none;" parent="1" vertex="1">
          <mxGeometry x="-15" y="248" width="30" height="30" as="geometry" />
        </mxCell>
        <mxCell id="TP7SuFMEwu7cWY-4JSte-35" value="&lt;h1 style=&quot;text-align: justify;&quot;&gt;Livraria&lt;/h1&gt;&lt;p style=&quot;text-align: justify;&quot;&gt;Considerando um sistema de gestÃ£o para uma livraria. Nesse sistema, temos a Livraria, que possui atributos como nome, endereÃ§o e telefone, e Ã© responsÃ¡vel pelo gerenciamento dos livros em estoque, dos funcionÃ¡rios e dos clientes. Os Livros sÃ£o representados por atributos como tÃ­tulo, autor, ano de publicaÃ§Ã£o, valor e quantidade em estoque, sendo armazenados na livraria. Os clientes possuem atributos como nome, telefone e endereÃ§o, podendo realizar compras na livraria. Os funcionÃ¡rios tÃªm atributos como nome, endereÃ§o, cargo e salÃ¡rio, desempenhando diversas funÃ§Ãµes na livraria, como atendimento ao cliente e gestÃ£o administrativa.&lt;br&gt;&lt;/p&gt;" style="text;html=1;strokeColor=none;fillColor=none;spacing=5;spacingTop=-20;whiteSpace=wrap;overflow=hidden;rounded=0;" parent="1" vertex="1">
          <mxGeometry x="-207.5" y="520" width="415" height="210" as="geometry" />
        </mxCell>
      </root>
    </mxGraphModel>
  </diagram>
</mxfile>
